<svg width="232" height="45" viewBox="0 0 232 45" fill="none" xmlns="http://www.w3.org/2000/svg">
<path fill-rule="evenodd" clip-rule="evenodd" d="M211.599 8.88889C216.262 8.88889 219.808 12.8679 220.626 17.5163H222.192L221.347 9.6732H232V38.6928H221.341L222.192 30.8497H220.626C219.808 35.4981 216 39.4771 211.599 39.4771C204.809 39.4771 200.613 32.6297 200.613 24.183C200.613 15.7363 204.809 8.88889 211.599 8.88889ZM219.184 23.764C219.189 13.3423 210.809 13.3423 210.814 23.764V24.8634C210.809 35.2852 219.189 35.2852 219.184 24.8634V23.764Z" fill="black"/>
<path d="M179.407 21.1765H181.013C186.006 18.9416 187.796 13.9649 187.796 8.88863H198.782C198.782 15.4902 193.072 25.1634 181.24 25.1634L181.258 26.6667C184.62 26.6667 187.613 25.9068 190.175 24.627C197.045 25.4379 200.351 28.3389 200.351 38.6926H189.366C188.691 34.9277 188.512 30.8497 183.612 30.8497C182.305 30.8497 180.964 30.8497 179.803 30.8497L180.648 38.6928H170.273V4.18301H181.24L179.407 21.1765Z" fill="black"/>
<path fill-rule="evenodd" clip-rule="evenodd" d="M136.532 29.0196C136.548 34.2554 140.381 39.4771 145.948 39.4771C151.155 39.4771 154.222 35.382 155.233 30.8497H156.805L155.96 38.6928H166.611V9.6732H154.841V22.2263C154.842 24.5983 154.859 28.4967 151.571 28.4967C148.284 28.4967 148.301 24.5983 148.302 22.2263V9.6732H136.532V29.0196Z" fill="black"/>
<path fill-rule="evenodd" clip-rule="evenodd" d="M122.408 8.88889C129.197 8.88889 133.394 15.7363 133.394 24.183C133.394 32.6297 129.197 39.4771 122.408 39.4771C118.006 39.4771 114.199 35.4981 113.38 30.8497H111.815L113.262 44.183H102.007V9.6732H112.66L111.815 17.5163H113.38C114.199 12.8679 117.745 8.88889 122.408 8.88889ZM123.193 23.5026C123.198 13.0808 114.818 13.0808 114.823 23.5026V24.602C114.818 35.0237 123.198 35.0237 123.193 24.602V23.5026Z" fill="black"/>
<path fill-rule="evenodd" clip-rule="evenodd" d="M98.345 19.3464C98.3292 14.1106 94.4955 8.88889 88.929 8.88889C83.7223 8.88889 80.655 12.984 79.6438 17.5163H78.0718L78.9168 9.6732H68.2661V38.6928H80.0361V26.1397C80.035 23.7677 80.0185 19.8693 83.3056 19.8693C86.5927 19.8693 86.5762 23.7677 86.575 26.1397V38.6928H98.345V19.3464Z" fill="black"/>
<path fill-rule="evenodd" clip-rule="evenodd" d="M44.2031 8.88889C48.8665 8.88889 52.4123 12.8679 53.2309 17.5163H54.7961L53.9512 9.6732H64.6045V38.6928H53.945L54.7961 30.8497H53.2309C52.4123 35.4981 48.6049 39.4771 44.2031 39.4771C37.4138 39.4771 33.2178 32.6297 33.2178 24.183C33.2178 15.7363 37.4138 8.88889 44.2031 8.88889ZM51.7882 23.764C51.7934 13.3423 43.4133 13.3423 43.4184 23.764V24.8634C43.4133 35.2852 51.7934 35.2852 51.7882 24.8634V23.764Z" fill="black"/>
<path fill-rule="evenodd" clip-rule="evenodd" d="M30.0789 19.3464C30.0631 14.1106 26.2294 8.88889 20.6629 8.88889C15.4562 8.88889 12.3888 12.984 11.3777 17.5163H9.80564L10.6507 9.6732H0V38.6928H11.77V26.1397C11.7689 23.7677 11.7523 19.8693 15.0395 19.8693C18.3266 19.8693 18.31 23.7677 18.3089 26.1397V38.6928H30.0789V19.3464Z" fill="black"/>
<path d="M50.7419 9.75012C49.905 8.5998 47.6033 5.4902 40.1489 6.27451L41.849 0C49.1726 0 52.3113 7.97386 52.3113 9.75012H50.7419Z" fill="#FF0000"/>
</svg>
